<svg width="130" height="156" viewBox="0 0 130 156" fill="none" xmlns="http://www.w3.org/2000/svg">
<path d="M66 4H81.48L116.88 59.5601H115.8V4H129.96V81.8802H115.56L77.88 22.9601H80.16V81.8802H66V4Z" fill="#00A699"/>
<path d="M60.4346 118.457C52.8958 118.457 46.2286 116.813 40.4329 113.525C34.6808 110.237 30.1706 105.327 26.9024 98.7953C23.6341 92.2631 22 84.1519 22 74.4617C22 64.5985 23.6341 56.4442 26.9024 49.9985C30.1706 43.5095 34.6808 38.6861 40.4329 35.5281C46.2286 32.3269 53.3751 31 60.9139 31C68.4962 31 75.1853 32.6439 80.981 35.9316C86.7767 39.1761 90.8294 43.7691 94.0976 50.258C97.3658 56.747 99 64.8148 99 74.4617C99 84.2817 97.3658 92.4577 94.0976 98.9899C90.8294 105.522 86.2973 110.41 80.5016 113.655C74.7059 116.856 68.0169 118.457 60.4346 118.457ZM86.4499 140C82.1358 140 78.1485 138.854 74.4881 136.561C70.8276 134.268 67.6247 131.045 64.8794 126.892L56.1205 113.785L68.4091 108.074L75.9914 119.755C77.2552 121.571 78.6932 122.848 80.3055 123.583C81.9179 124.318 83.5738 124.729 85.2733 124.816C87.4521 124.816 89.5438 124.535 91.5484 123.972C93.5965 123.453 95.7317 122.739 97.9541 121.831V137.664C95.906 138.486 93.9451 139.07 92.0713 139.416C90.2411 139.805 88.3672 140 86.4499 140ZM60.4346 104.57C67.3633 104.57 72.8539 101.975 76.9066 96.7837C81.0028 91.5925 83.0509 84.1086 83.0509 74.3319C83.0509 64.9013 81.0028 57.5689 76.9066 52.3345C72.8539 47.1 67.3633 44.4829 60.4346 44.4829C53.6366 44.4829 48.1895 47.1217 44.0933 52.3994C39.9971 57.6338 37.949 64.9879 37.949 74.4617C37.949 84.1952 39.9971 91.6574 44.0933 96.8485C48.1895 101.996 53.6366 104.57 60.4346 104.57Z" fill="#1E1E1E"/>
<path d="M53.4295 132.48C45.3033 132.48 38.1165 130.686 31.8692 127.096C25.6689 123.507 20.8073 118.146 17.2844 111.015C13.7615 103.883 12 95.0282 12 84.449C12 73.6809 13.7615 64.7784 17.2844 57.7414C20.8073 50.6571 25.6689 45.3912 31.8692 41.9435C38.1165 38.4486 45.82 37 53.9462 37C62.1193 37 69.3296 38.7947 75.5769 42.384C81.8242 45.9262 86.1927 50.9405 89.7156 58.0248C93.2385 65.109 95 73.9171 95 84.449C95 95.1699 93.2385 104.096 89.7156 111.228C86.1927 118.359 81.3075 123.696 75.0602 127.238C68.8129 130.733 61.6026 132.48 53.4295 132.48ZM81.4719 156C76.8217 156 72.5237 154.748 68.578 152.245C64.6324 149.742 61.1799 146.224 58.2206 141.69L48.7792 127.38L62.0254 121.145L70.1986 133.897C71.5608 135.881 73.1108 137.274 74.8488 138.077C76.5868 138.88 78.3717 139.328 80.2037 139.423C82.5523 139.423 84.807 139.116 86.9677 138.502C89.1754 137.935 91.4771 137.156 93.8726 136.164V153.45C91.6649 154.347 89.5512 154.985 87.5314 155.362C85.5585 155.787 83.5387 156 81.4719 156ZM53.4295 117.32C60.8981 117.32 66.8166 114.486 71.185 108.819C75.6004 103.151 77 95.1226 77 84.449C77 74.1532 75.9154 63.7394 71.5 58.0248C67.1316 52.3101 61.4147 53.5 53.9462 53.5C46.6185 53.5 40.2303 54.6007 35.8149 60.3626C31.3995 66.0772 29.1918 74.106 29.1918 84.449C29.1918 95.0754 31.3995 103.222 35.8149 108.89C40.2303 114.51 46.1018 117.32 53.4295 117.32Z" fill="#1E1E1E"/>
<path d="M60.28 116.867C53.36 116.867 47.24 115.347 41.92 112.307C36.64 109.267 32.5 104.727 29.5 98.687C26.5 92.647 25 85.147 25 76.187C25 67.0669 26.5 59.527 29.5 53.567C32.5 47.5669 36.64 43.107 41.92 40.187C47.24 37.2269 53.8 36 60.72 36C67.68 36 73.82 37.52 79.14 40.56C84.46 43.56 88.18 47.8069 91.18 53.807C94.18 59.807 95.6801 67.2669 95.6801 76.187C95.6801 85.267 94.18 92.827 91.18 98.867C88.18 104.907 84.02 109.427 78.7 112.427C73.38 115.387 67.24 116.867 60.28 116.867ZM84.16 136.787C80.2 136.787 76.54 135.727 73.18 133.607C69.82 131.487 66.88 128.507 64.36 124.667L56.32 112.547L67.6 107.267L74.56 118.067C75.72 119.747 77.04 120.927 78.52 121.607C80 122.287 81.52 122.667 83.08 122.747C85.08 122.747 87 122.487 88.84 121.967C90.72 121.487 92.68 120.827 94.72 119.987V134.627C92.84 135.387 91.04 135.927 89.32 136.247C87.64 136.607 85.92 136.787 84.16 136.787ZM60.28 104.027C66.64 104.027 71.68 101.627 75.4 96.827C79.16 92.0269 81.04 85.107 81.04 76.0669C81.04 67.3469 79.16 60.567 75.4 55.7269C71.68 50.8869 66.64 48.467 60.28 48.467C54.04 48.467 49.04 50.9069 45.28 55.787C41.52 60.627 39.64 67.4269 39.64 76.187C39.64 85.187 41.52 92.0869 45.28 96.8869C49.04 101.647 54.04 104.027 60.28 104.027Z" fill="#00A699"/>
<path d="M2 91V2H33.295C43.2712 2 51.038 4.46843 56.5954 9.40525C62.1985 14.3421 65 21.3359 65 30.3867C65 39.3462 62.1985 46.2943 56.5954 51.2311C51.038 56.1679 43.2712 58.6363 33.295 58.6363H18.2625V91H2ZM18.2625 44.5116H33.295C38.3059 44.5116 42.0868 43.1859 44.6377 40.5347C47.1887 37.8834 48.4642 34.5008 48.4642 30.3867C48.4642 26.1813 47.1887 22.7301 44.6377 20.0331C42.0868 17.3362 38.3059 15.9877 33.295 15.9877H18.2625V44.5116Z" fill="#1E1E1E"/>
<path d="M5 81.8802V4H32.48C41.24 4 48.06 6.16002 52.94 10.48C57.86 14.8 60.32 20.92 60.32 28.84C60.32 36.6801 57.86 42.7601 52.94 47.0801C48.06 51.4001 41.24 53.5601 32.48 53.5601H19.28V81.8802H5ZM19.28 41.2001H32.48C36.88 41.2001 40.2 40.0401 42.44 37.7201C44.68 35.4001 45.8 32.4401 45.8 28.84C45.8 25.16 44.68 22.14 42.44 19.78C40.2 17.42 36.88 16.24 32.48 16.24H19.28V41.2001Z" fill="#00A699"/>
</svg>
